<svg xmlns="http://www.w3.org/2000/svg" xml:space="preserve" width="2048" height="2048" style="shape-rendering:geometricPrecision;text-rendering:geometricPrecision;image-rendering:optimizeQuality;fill-rule:evenodd;clip-rule:evenodd"><defs><style>.fil9{fill:#7eb45e}.fil7{fill:#9ccc65}.fil5{fill:#d47c0f}.fil4{fill:#d49144}.fil13{fill:#ef6713}.fil11{fill:#f57f17}.fil2{fill:#ff9100}.fil1{fill:#ffab40}</style></defs><g id="Layer_x0020_1"><rect x="256" y="320" width="416" height="1408" rx="27" ry="27" style="fill:#3e2723"/><path class="fil1" d="M256 565h416v53H256zM256 1404h416v53H256zM256 1298h416v53H256z"/><circle class="fil2" cx="464" cy="892" r="103"/><path class="fil2" d="M353 1024h223v14H353z"/><path d="M283 320h181v1408H283c-15 0-27-12-27-27V348c0-15 12-27 27-27z" style="fill:#38262c"/><path class="fil4" d="M256 565h208v53H256zM256 1404h208v53H256zM256 1298h208v53H256z"/><path class="fil5" d="M464 789v205c-57 0-103-46-103-103s46-103 103-103zM353 1024h111v14H353z"/><g id="_220504008"><rect x="731" y="320" width="416" height="1408" rx="27" ry="27" style="fill:#33691e"/><path class="fil7" d="M731 565h416v53H731zM731 1404h416v53H731zM731 1298h416v53H731z"/><circle class="fil7" cx="939" cy="892" r="103"/><path class="fil7" d="M828 1024h223v14H828z"/></g><g id="_220502880"><path d="M759 320h181v1408H759c-15 0-27-12-27-27V348c0-15 12-27 27-27z" style="fill:#296424"/><path class="fil9" d="M731 565h208v53H731zM731 1404h208v53H731zM731 1298h208v53H731zM939 789v205c-57 0-103-46-103-103s46-103 103-103zM828 1024h111v14H828z"/></g><g id="_220502088"><rect transform="matrix(.9092 -.1167 .1167 .9092 1203.38 352.215)" width="454" height="1536" rx="27" ry="27" style="fill:#e65100"/><path class="fil11" transform="matrix(.9092 -.1167 .1167 .9092 1234.52 594.83)" d="M0 0h454v58H0z"/><path class="fil11" transform="matrix(.9092 -.1167 .1167 .9092 1341.42 1427.67)" d="M0 0h454v58H0z"/><path class="fil11" transform="matrix(.9092 -.1167 .1167 .9092 1327.93 1322.54)" d="M0 0h454v58H0z"/><circle class="fil11" transform="matrix(.9092 -.1167 .1167 .9092 1482.52 893.067)" r="112"/><path class="fil11" transform="matrix(.9092 -.1167 .1167 .9092 1388.97 1038.16)" d="M0 0h243v15H0z"/></g><g id="_220500816"><path d="m1231 349 180-23 179 1397-179 23c-15 2-29-9-31-24L1208 380c-2-15 9-29 24-31z" style="fill:#e34200"/><path class="fil13" d="m1235 595 207-27 6 53-207 26zM1341 1428l207-27 7 53-207 26zM1328 1323l207-27 6 53-206 26zM1469 791h1l26 204h-1c-56 7-108-33-115-89s33-108 89-115zM1389 1038l111-14 2 13-111 15z"/></g><path style="fill:none" d="M0 0h2048v2048H0z"/></g></svg>